<svg xmlns="http://www.w3.org/2000/svg" width="360" height="360" viewBox="0 0 360 360">
  <rect width="360" height="360" rx="24" fill="#f8f9fb"/>
  <rect x="34" y="34" width="292" height="292" rx="18" fill="#ffffff" stroke="#d8e0ea" stroke-width="2" stroke-dasharray="8 8"/>
  <rect x="78" y="78" width="58" height="58" rx="8" fill="#1f3f66"/>
  <rect x="224" y="78" width="58" height="58" rx="8" fill="#1f3f66"/>
  <rect x="78" y="224" width="58" height="58" rx="8" fill="#1f3f66"/>
  <path d="M170 88h18v18h-18zM196 88h18v44h-18zM170 122h18v18h-18zM160 166h36v18h-36zM214 166h18v18h-18zM250 166h18v36h-18zM160 206h18v52h-18zM196 206h18v18h-18zM224 224h44v18h-44zM196 250h18v18h-18zM242 260h26v18h-26z" fill="#B88936"/>
  <text x="180" y="175" text-anchor="middle" font-family="Arial, Microsoft YaHei, sans-serif" font-size="18" font-weight="700" fill="#0e1d33">请上传收款码</text>
  <text x="180" y="202" text-anchor="middle" font-family="Arial, Microsoft YaHei, sans-serif" font-size="13" fill="#4b5d72">替换 public/payment-qr.png 或配置 URL</text>
</svg>
